<?xml version="1.0" encoding="UTF-8" standalone="no"?>
<svg width="800" height="600" xmlns="http://www.w3.org/2000/svg">
  <!-- Background -->
  <rect width="800" height="600" fill="#f5f5f5"/>
  
  <!-- Title -->
  <text x="400" y="60" font-family="Arial" font-size="36" font-weight="bold" text-anchor="middle" fill="#333">RabbitMQ: Technical Deep Dive</text>
  
  <!-- Architecture Section -->
  <text x="400" y="100" font-family="Arial" font-size="24" font-weight="bold" text-anchor="middle" fill="#FF8C00">Architecture</text>
  
  <!-- Architecture Diagram -->
  <rect x="50" y="120" width="700" height="180" rx="10" fill="white" stroke="#ddd" stroke-width="2"/>
  
  <!-- Producer -->
  <rect x="80" y="170" width="120" height="60" rx="5" fill="#FF8C00" opacity="0.2" stroke="#FF8C00" stroke-width="2"/>
  <text x="140" y="205" font-family="Arial" font-size="16" text-anchor="middle" fill="#333">Producer</text>
  
  <!-- Exchange -->
  <rect x="280" y="170" width="120" height="60" rx="5" fill="#FF8C00" opacity="0.2" stroke="#FF8C00" stroke-width="2"/>
  <text x="340" y="205" font-family="Arial" font-size="16" text-anchor="middle" fill="#333">Exchange</text>
  
  <!-- Queue -->
  <rect x="480" y="170" width="120" height="60" rx="5" fill="#FF8C00" opacity="0.2" stroke="#FF8C00" stroke-width="2"/>
  <text x="540" y="205" font-family="Arial" font-size="16" text-anchor="middle" fill="#333">Queue</text>
  
  <!-- Consumer -->
  <rect x="680" y="170" width="120" height="60" rx="5" fill="#FF8C00" opacity="0.2" stroke="#FF8C00" stroke-width="2" transform="translate(-50, 0)"/>
  <text x="690" y="205" font-family="Arial" font-size="16" text-anchor="middle" fill="#333">Consumer</text>
  
  <!-- Arrows -->
  <path d="M 200,200 L 280,200" stroke="#FF8C00" stroke-width="2" fill="none" marker-end="url(#arrow)"/>
  <path d="M 400,200 L 480,200" stroke="#FF8C00" stroke-width="2" fill="none" marker-end="url(#arrow)"/>
  <path d="M 600,200 L 630,200" stroke="#FF8C00" stroke-width="2" fill="none" marker-end="url(#arrow)"/>
  
  <!-- Exchange Types Section -->
  <text x="400" y="330" font-family="Arial" font-size="24" font-weight="bold" text-anchor="middle" fill="#FF8C00">Exchange Types</text>
  
  <!-- Exchange Types -->
  <rect x="50" y="350" width="700" height="100" rx="10" fill="white" stroke="#ddd" stroke-width="2"/>
  
  <!-- Direct Exchange -->
  <rect x="70" y="370" width="200" height="60" rx="5" fill="#FF8C00" opacity="0.15" stroke="#FF8C00" stroke-width="1"/>
  <text x="170" y="395" font-family="Arial" font-size="16" font-weight="bold" text-anchor="middle" fill="#333">Direct Exchange</text>
  <text x="170" y="415" font-family="Arial" font-size="12" text-anchor="middle" fill="#555">Routes by exact routing key match</text>
  
  <!-- Topic Exchange -->
  <rect x="300" y="370" width="200" height="60" rx="5" fill="#FF8C00" opacity="0.15" stroke="#FF8C00" stroke-width="1"/>
  <text x="400" y="395" font-family="Arial" font-size="16" font-weight="bold" text-anchor="middle" fill="#333">Topic Exchange</text>
  <text x="400" y="415" font-family="Arial" font-size="12" text-anchor="middle" fill="#555">Routes by pattern matching</text>
  
  <!-- Fanout Exchange -->
  <rect x="530" y="370" width="200" height="60" rx="5" fill="#FF8C00" opacity="0.15" stroke="#FF8C00" stroke-width="1"/>
  <text x="630" y="395" font-family="Arial" font-size="16" font-weight="bold" text-anchor="middle" fill="#333">Fanout Exchange</text>
  <text x="630" y="415" font-family="Arial" font-size="12" text-anchor="middle" fill="#555">Broadcasts to all bound queues</text>
  
  <!-- Strengths and Weaknesses -->
  <rect x="50" y="460" width="340" height="130" rx="10" fill="#e1f5fe" stroke="#29b6f6" stroke-width="2"/>
  <text x="70" y="485" font-family="Arial" font-size="20" font-weight="bold" fill="#333">Strengths</text>
  <circle cx="80" cy="510" r="5" fill="#29b6f6"/>
  <text x="95" y="515" font-family="Arial" font-size="14" fill="#333">Easy to set up and configure</text>
  <circle cx="80" cy="535" r="5" fill="#29b6f6"/>
  <text x="95" y="540" font-family="Arial" font-size="14" fill="#333">Supports complex routing patterns</text>
  <circle cx="80" cy="560" r="5" fill="#29b6f6"/>
  <text x="95" y="565" font-family="Arial" font-size="14" fill="#333">Wide protocol support</text>
  
  <rect x="410" y="460" width="340" height="130" rx="10" fill="#ffebee" stroke="#ef9a9a" stroke-width="2"/>
  <text x="430" y="485" font-family="Arial" font-size="20" font-weight="bold" fill="#333">Weaknesses</text>
  <circle cx="440" cy="510" r="5" fill="#ef9a9a"/>
  <text x="455" y="515" font-family="Arial" font-size="14" fill="#333">Limited scalability for high-throughput</text>
  <circle cx="440" cy="535" r="5" fill="#ef9a9a"/>
  <text x="455" y="540" font-family="Arial" font-size="14" fill="#333">Higher latency for large-scale data</text>
  <circle cx="440" cy="560" r="5" fill="#ef9a9a"/>
  <text x="455" y="565" font-family="Arial" font-size="14" fill="#333">Less suitable for event streaming</text>
  
  <!-- Arrow Marker -->
  <defs>
    <marker id="arrow" markerWidth="10" markerHeight="10" refX="9" refY="3" orient="auto" markerUnits="strokeWidth">
      <path d="M0,0 L0,6 L9,3 z" fill="#333"/>
    </marker>
  </defs>
</svg>
