<?xml version="1.0" encoding="UTF-8" standalone="no"?>
<svg width="800" height="600" xmlns="http://www.w3.org/2000/svg">
  <!-- Background -->
  <rect width="800" height="600" fill="#f5f5f5"/>
  
  <!-- Title -->
  <text x="400" y="80" font-family="Arial" font-size="36" font-weight="bold" text-anchor="middle" fill="#333">Types of Messaging Systems</text>
  
  <!-- Point-to-Point (Queue-based) -->
  <rect x="50" y="130" width="700" height="120" rx="10" fill="white" stroke="#ddd" stroke-width="2"/>
  <text x="70" y="160" font-family="Arial" font-size="22" font-weight="bold" fill="#4285f4">Point-to-Point (Queue-based)</text>
  
  <!-- Queue Diagram -->
  <rect x="70" y="180" width="120" height="50" rx="5" fill="#4285f4" stroke="#2a56c6" stroke-width="2"/>
  <text x="130" y="210" font-family="Arial" font-size="16" font-weight="bold" text-anchor="middle" fill="white">Producer</text>
  
  <rect x="240" y="180" width="120" height="50" rx="5" fill="#fbbc05" stroke="#e37400" stroke-width="2"/>
  <text x="300" y="210" font-family="Arial" font-size="16" font-weight="bold" text-anchor="middle" fill="white">Queue</text>
  
  <rect x="410" y="180" width="120" height="50" rx="5" fill="#34a853" stroke="#0d652d" stroke-width="2"/>
  <text x="470" y="210" font-family="Arial" font-size="16" font-weight="bold" text-anchor="middle" fill="white">Consumer</text>
  
  <path d="M 190,205 L 240,205" stroke="#333" stroke-width="2" fill="none" marker-end="url(#arrow)"/>
  <path d="M 360,205 L 410,205" stroke="#333" stroke-width="2" fill="none" marker-end="url(#arrow)"/>
  
  <text x="580" y="205" font-family="Arial" font-size="16" fill="#333">Example: Task queues</text>
  
  <!-- Publish/Subscribe (Topic-based) -->
  <rect x="50" y="270" width="700" height="120" rx="10" fill="white" stroke="#ddd" stroke-width="2"/>
  <text x="70" y="300" font-family="Arial" font-size="22" font-weight="bold" fill="#fbbc05">Publish/Subscribe (Topic-based)</text>
  
  <!-- Pub/Sub Diagram -->
  <rect x="70" y="320" width="120" height="50" rx="5" fill="#4285f4" stroke="#2a56c6" stroke-width="2"/>
  <text x="130" y="350" font-family="Arial" font-size="16" font-weight="bold" text-anchor="middle" fill="white">Publisher</text>
  
  <rect x="240" y="320" width="120" height="50" rx="5" fill="#fbbc05" stroke="#e37400" stroke-width="2"/>
  <text x="300" y="350" font-family="Arial" font-size="16" font-weight="bold" text-anchor="middle" fill="white">Topic</text>
  
  <rect x="410" y="290" width="120" height="50" rx="5" fill="#34a853" stroke="#0d652d" stroke-width="2"/>
  <text x="470" y="320" font-family="Arial" font-size="16" font-weight="bold" text-anchor="middle" fill="white">Subscriber 1</text>
  
  <rect x="410" y="350" width="120" height="50" rx="5" fill="#34a853" stroke="#0d652d" stroke-width="2"/>
  <text x="470" y="380" font-family="Arial" font-size="16" font-weight="bold" text-anchor="middle" fill="white">Subscriber 2</text>
  
  <path d="M 190,345 L 240,345" stroke="#333" stroke-width="2" fill="none" marker-end="url(#arrow)"/>
  <path d="M 360,330 L 410,315" stroke="#333" stroke-width="2" fill="none" marker-end="url(#arrow)"/>
  <path d="M 360,360 L 410,375" stroke="#333" stroke-width="2" fill="none" marker-end="url(#arrow)"/>
  
  <text x="580" y="345" font-family="Arial" font-size="16" fill="#333">Example: Notifications</text>
  
  <!-- Event Streaming -->
  <rect x="50" y="410" width="700" height="120" rx="10" fill="white" stroke="#ddd" stroke-width="2"/>
  <text x="70" y="440" font-family="Arial" font-size="22" font-weight="bold" fill="#34a853">Event Streaming</text>
  
  <!-- Event Streaming Diagram -->
  <rect x="70" y="460" width="120" height="50" rx="5" fill="#4285f4" stroke="#2a56c6" stroke-width="2"/>
  <text x="130" y="490" font-family="Arial" font-size="16" font-weight="bold" text-anchor="middle" fill="white">Producer</text>
  
  <rect x="240" y="460" width="290" height="50" rx="5" fill="#fbbc05" stroke="#e37400" stroke-width="2"/>
  <text x="385" y="490" font-family="Arial" font-size="16" font-weight="bold" text-anchor="middle" fill="white">Event Log (Persistent)</text>
  
  <rect x="580" y="460" width="120" height="50" rx="5" fill="#34a853" stroke="#0d652d" stroke-width="2"/>
  <text x="640" y="490" font-family="Arial" font-size="16" font-weight="bold" text-anchor="middle" fill="white">Consumer</text>
  
  <path d="M 190,485 L 240,485" stroke="#333" stroke-width="2" fill="none" marker-end="url(#arrow)"/>
  <path d="M 530,485 L 580,485" stroke="#333" stroke-width="2" fill="none" marker-end="url(#arrow)"/>
  
  <!-- Arrow Marker -->
  <defs>
    <marker id="arrow" markerWidth="10" markerHeight="10" refX="9" refY="3" orient="auto" markerUnits="strokeWidth">
      <path d="M0,0 L0,6 L9,3 z" fill="#333"/>
    </marker>
  </defs>
</svg>
