<?xml version="1.0" encoding="UTF-8" standalone="no"?>
<svg width="800" height="600" xmlns="http://www.w3.org/2000/svg">
  <!-- Background -->
  <rect width="800" height="600" fill="#f5f5f5"/>
  
  <!-- Title -->
  <text x="400" y="80" font-family="Arial" font-size="36" font-weight="bold" text-anchor="middle" fill="#333">Apache Kafka: Technical Deep Dive</text>
  
  <!-- Architecture Diagram -->
  <rect x="100" y="130" width="600" height="220" rx="10" fill="white" stroke="#ddd" stroke-width="2"/>
  <text x="150" y="160" font-family="Arial" font-size="22" font-weight="bold" fill="#333">Architecture</text>
  
  <!-- Producer -->
  <rect x="120" y="190" width="120" height="60" rx="5" fill="#4285f4" stroke="#2a56c6" stroke-width="2"/>
  <text x="180" y="225" font-family="Arial" font-size="16" font-weight="bold" text-anchor="middle" fill="white">Producer</text>
  
  <!-- Kafka Cluster -->
  <rect x="300" y="170" width="200" height="100" rx="5" fill="#231f20" stroke="#000" stroke-width="2"/>
  <text x="400" y="195" font-family="Arial" font-size="16" font-weight="bold" text-anchor="middle" fill="white">Kafka Cluster</text>
  
  <!-- Topic Partitions -->
  <rect x="320" y="210" width="50" height="20" rx="2" fill="#fbbc05" stroke="#e37400" stroke-width="1"/>
  <rect x="320" y="235" width="50" height="20" rx="2" fill="#fbbc05" stroke="#e37400" stroke-width="1"/>
  <text x="345" y="225" font-family="Arial" font-size="10" font-weight="bold" text-anchor="middle" fill="black">P0</text>
  <text x="345" y="250" font-family="Arial" font-size="10" font-weight="bold" text-anchor="middle" fill="black">P1</text>
  
  <rect x="380" y="210" width="50" height="20" rx="2" fill="#34a853" stroke="#0d652d" stroke-width="1"/>
  <rect x="380" y="235" width="50" height="20" rx="2" fill="#34a853" stroke="#0d652d" stroke-width="1"/>
  <text x="405" y="225" font-family="Arial" font-size="10" font-weight="bold" text-anchor="middle" fill="black">P0</text>
  <text x="405" y="250" font-family="Arial" font-size="10" font-weight="bold" text-anchor="middle" fill="black">P1</text>
  
  <rect x="440" y="210" width="50" height="20" rx="2" fill="#ea4335" stroke="#c5221f" stroke-width="1"/>
  <rect x="440" y="235" width="50" height="20" rx="2" fill="#ea4335" stroke="#c5221f" stroke-width="1"/>
  <text x="465" y="225" font-family="Arial" font-size="10" font-weight="bold" text-anchor="middle" fill="black">P0</text>
  <text x="465" y="250" font-family="Arial" font-size="10" font-weight="bold" text-anchor="middle" fill="black">P1</text>
  
  <text x="345" y="200" font-family="Arial" font-size="10" text-anchor="middle" fill="white">Topic 1</text>
  <text x="405" y="200" font-family="Arial" font-size="10" text-anchor="middle" fill="white">Topic 2</text>
  <text x="465" y="200" font-family="Arial" font-size="10" text-anchor="middle" fill="white">Topic 3</text>
  
  <!-- Consumer Groups -->
  <rect x="560" y="170" width="120" height="40" rx="5" fill="#4285f4" stroke="#2a56c6" stroke-width="2"/>
  <text x="620" y="195" font-family="Arial" font-size="14" font-weight="bold" text-anchor="middle" fill="white">Consumer Group 1</text>
  
  <rect x="560" y="230" width="120" height="40" rx="5" fill="#34a853" stroke="#0d652d" stroke-width="2"/>
  <text x="620" y="255" font-family="Arial" font-size="14" font-weight="bold" text-anchor="middle" fill="white">Consumer Group 2</text>
  
  <!-- ZooKeeper -->
  <rect x="300" y="290" width="200" height="30" rx="5" fill="#fbbc05" stroke="#e37400" stroke-width="2"/>
  <text x="400" y="310" font-family="Arial" font-size="14" font-weight="bold" text-anchor="middle" fill="white">ZooKeeper / KRaft</text>
  
  <!-- Arrows -->
  <path d="M 240,220 L 300,220" stroke="#333" stroke-width="2" fill="none" marker-end="url(#arrow)"/>
  <path d="M 500,190 L 560,190" stroke="#333" stroke-width="2" fill="none" marker-end="url(#arrow)"/>
  <path d="M 500,250 L 560,250" stroke="#333" stroke-width="2" fill="none" marker-end="url(#arrow)"/>
  
  <!-- Strengths and Weaknesses -->
  <rect x="100" y="370" width="290" height="180" rx="10" fill="white" stroke="#ddd" stroke-width="2"/>
  <text x="150" y="400" font-family="Arial" font-size="22" font-weight="bold" fill="#34a853">Strengths</text>
  
  <circle cx="120" cy="430" r="6" fill="#34a853"/>
  <text x="135" y="435" font-family="Arial" font-size="16" fill="#333">High throughput and low latency</text>
  
  <circle cx="120" cy="460" r="6" fill="#34a853"/>
  <text x="135" y="465" font-family="Arial" font-size="16" fill="#333">Durable storage for event replay</text>
  
  <circle cx="120" cy="490" r="6" fill="#34a853"/>
  <text x="135" y="495" font-family="Arial" font-size="16" fill="#333">Scales horizontally with ease</text>
  
  <circle cx="120" cy="520" r="6" fill="#34a853"/>
  <text x="135" y="525" font-family="Arial" font-size="16" fill="#333">Strong for big data applications</text>
  
  <rect x="410" y="370" width="290" height="180" rx="10" fill="white" stroke="#ddd" stroke-width="2"/>
  <text x="460" y="400" font-family="Arial" font-size="22" font-weight="bold" fill="#ea4335">Weaknesses</text>
  
  <circle cx="430" cy="430" r="6" fill="#ea4335"/>
  <text x="445" y="435" font-family="Arial" font-size="16" fill="#333">Complex setup and management</text>
  
  <circle cx="430" cy="460" r="6" fill="#ea4335"/>
  <text x="445" y="465" font-family="Arial" font-size="16" fill="#333">Less suited for simple queue tasks</text>
  
  <circle cx="430" cy="490" r="6" fill="#ea4335"/>
  <text x="445" y="495" font-family="Arial" font-size="16" fill="#333">Steeper learning curve</text>
  
  <!-- Arrow Marker -->
  <defs>
    <marker id="arrow" markerWidth="10" markerHeight="10" refX="9" refY="3" orient="auto" markerUnits="strokeWidth">
      <path d="M0,0 L0,6 L9,3 z" fill="#333"/>
    </marker>
  </defs>
</svg>
