<?xml version="1.0" encoding="UTF-8" standalone="no"?>
<svg width="800" height="600" xmlns="http://www.w3.org/2000/svg">
  <!-- Background -->
  <rect width="800" height="600" fill="#f5f5f5"/>
  
  <!-- Title -->
  <text x="400" y="80" font-family="Arial" font-size="36" font-weight="bold" text-anchor="middle" fill="#333">Introduction to Messaging Systems</text>
  
  <!-- Messaging System Diagram -->
  <rect x="100" y="150" width="180" height="80" rx="10" fill="#4285f4" stroke="#2a56c6" stroke-width="2"/>
  <text x="190" y="195" font-family="Arial" font-size="20" font-weight="bold" text-anchor="middle" fill="white">Producer</text>
  
  <rect x="310" y="150" width="180" height="80" rx="10" fill="#fbbc05" stroke="#e37400" stroke-width="2"/>
  <text x="400" y="195" font-family="Arial" font-size="20" font-weight="bold" text-anchor="middle" fill="white">Broker</text>
  
  <rect x="520" y="150" width="180" height="80" rx="10" fill="#34a853" stroke="#0d652d" stroke-width="2"/>
  <text x="610" y="195" font-family="Arial" font-size="20" font-weight="bold" text-anchor="middle" fill="white">Consumer</text>
  
  <!-- Arrows -->
  <path d="M 280,190 L 310,190" stroke="#333" stroke-width="3" fill="none" marker-end="url(#arrow)"/>
  <path d="M 490,190 L 520,190" stroke="#333" stroke-width="3" fill="none" marker-end="url(#arrow)"/>
  
  <!-- Arrow Marker -->
  <defs>
    <marker id="arrow" markerWidth="10" markerHeight="10" refX="9" refY="3" orient="auto" markerUnits="strokeWidth">
      <path d="M0,0 L0,6 L9,3 z" fill="#333"/>
    </marker>
  </defs>
  
  <!-- Key Benefits -->
  <rect x="100" y="280" width="600" height="250" rx="10" fill="white" stroke="#ddd" stroke-width="2"/>
  
  <text x="150" y="320" font-family="Arial" font-size="22" font-weight="bold" fill="#333">Why Use Messaging Systems?</text>
  
  <circle cx="130" cy="360" r="8" fill="#4285f4"/>
  <text x="150" y="365" font-family="Arial" font-size="18" fill="#333">Decoupling: Applications operate independently</text>
  
  <circle cx="130" cy="400" r="8" fill="#fbbc05"/>
  <text x="150" y="405" font-family="Arial" font-size="18" fill="#333">Scalability: Handles high volumes across systems</text>
  
  <circle cx="130" cy="440" r="8" fill="#34a853"/>
  <text x="150" y="445" font-family="Arial" font-size="18" fill="#333">Reliability: Ensures message delivery with persistence</text>
  
  <circle cx="130" cy="480" r="8" fill="#ea4335"/>
  <text x="150" y="485" font-family="Arial" font-size="18" fill="#333">Asynchronous: Improves performance with non-blocking ops</text>
</svg>
